<?xml version="1.0" encoding="UTF-8"?>
<svg id="Layer_1" xmlns="http://www.w3.org/2000/svg" xmlns:svg="http://www.w3.org/2000/svg" xmlns:sodipodi="http://sodipodi.sourceforge.net/DTD/sodipodi-0.dtd" xmlns:inkscape="http://www.inkscape.org/namespaces/inkscape" version="1.1" viewBox="0 0 720 432">
  <!-- Generator: Adobe Illustrator 30.4.0, SVG Export Plug-In . SVG Version: 2.1.4 Build 226)  -->
  <defs>
    <style>
      .st0 {
        fill: #ab93c5;
      }

      .st1, .st2, .st3, .st4, .st5, .st6, .st7, .st8, .st9, .st10, .st11, .st12, .st13, .st14, .st15, .st16, .st17, .st18, .st19, .st20, .st21, .st22, .st23, .st24, .st25 {
        stroke-miterlimit: 10;
      }

      .st1, .st2, .st3, .st5, .st7, .st9, .st10, .st12, .st13, .st14, .st17, .st20, .st21, .st22, .st23, .st24, .st25 {
        stroke: #231f20;
      }

      .st26 {
        fill: #cf91a6;
      }

      .st27 {
        fill: #ebba83;
      }

      .st2 {
        fill: #f15a29;
      }

      .st2, .st9 {
        fill-opacity: .65;
      }

      .st28 {
        fill: #d1e285;
      }

      .st29, .st17 {
        fill: #231f20;
      }

      .st30 {
        fill: #efe27f;
      }

      .st3, .st4, .st6, .st8, .st11, .st14, .st15, .st16, .st18, .st19, .st21 {
        fill: none;
      }

      .st31 {
        fill: #ebb982;
      }

      .st4 {
        stroke: #faa41a;
      }

      .st4, .st6, .st32, .st14, .st15, .st16, .st18, .st19, .st21 {
        isolation: isolate;
      }

      .st4, .st15, .st19, .st21 {
        opacity: .8;
      }

      .st5 {
        fill: #ffce2f;
      }

      .st5, .st10, .st25 {
        fill-opacity: .7;
      }

      .st6 {
        opacity: .85;
        stroke: #52b0e3;
      }

      .st33 {
        fill: #93d3ca;
      }

      .st7 {
        fill: #ee2a7b;
      }

      .st7, .st12, .st17, .st22, .st23 {
        fill-opacity: .8;
      }

      .st8 {
        stroke: blue;
      }

      .st9 {
        fill: #7dc78f;
      }

      .st10 {
        fill: #2b3990;
      }

      .st11 {
        stroke: red;
      }

      .st34 {
        fill: #93a9cf;
      }

      .st12 {
        fill: #ffde17;
      }

      .st35 {
        fill: #87cae4;
      }

      .st13 {
        fill: #00aeef;
      }

      .st13, .st20 {
        fill-opacity: .6;
      }

      .st14 {
        opacity: .75;
      }

      .st15 {
        stroke: #2a348e;
      }

      .st16 {
        opacity: .5;
        stroke: #4e53a3;
      }

      .st18 {
        opacity: .6;
        stroke: #bb3995;
      }

      .st36 {
        fill: #94ce92;
      }

      .st19 {
        stroke: #cf1c60;
      }

      .st37 {
        fill: #eda2a3;
      }

      .st20 {
        fill: #d7df23;
      }

      .st22 {
        fill: #fbb040;
      }

      .st23 {
        fill: #662d91;
      }

      .st38 {
        display: none;
      }

      .st24 {
        fill: #f9ed32;
        fill-opacity: .5;
      }

      .st25 {
        fill: #009444;
      }
    </style>
  </defs>
  <g id="Makeability_Lab_Logo" inkscape:version="1.4.4 (dcaf3e7, 2026-05-05)" sodipodi:docname="MakeabilityLab-Logo-v3-LaserCut_v2.svg">
    <g id="Full_w_x2F_Triangles">
      <g id="Black_Inner_Fills">
        <polygon id="polygon194" class="st1" points="432 252.32 504 180.32 504 252.32 432 252.32"/>
        <polygon id="polygon195" class="st1" points="216 252.32 216 324.32 288 252.32 216 252.32"/>
        <polygon id="polygon196" class="st1" points="216 180.32 288 252.32 216 252.32 216 180.32"/>
        <polygon id="polygon197" class="st1" points="504 324.32 504 252.32 432 252.32 504 324.32"/>
      </g>
      <g id="M_Inner_Fills" class="st38">
        <polygon id="polygon198" class="st5" points="432 108.32 504 180.32 504 108.32 432 108.32"/>
        <polygon id="polygon199" class="st20" points="504 324.32 576 252.32 504 252.32 504 324.32"/>
        <polygon id="polygon200" class="st22" points="504 180.32 576 252.32 576 180.32 504 180.32"/>
        <polygon id="polygon201" class="st2" points="144 108.32 216 180.32 144 180.32 144 108.32"/>
        <polygon id="polygon202" class="st25" points="144 252.32 216 180.32 144 180.32 144 252.32"/>
        <polygon id="polygon203" class="st12" points="144 252.32 216 180.32 216 252.32 144 252.32"/>
        <polygon id="polygon204" class="st10" points="144 252.32 216 324.32 216 252.32 144 252.32"/>
        <polygon id="_x3C_Path_x3E_" class="st9" points="504 36.32 576 108.32 504 108.32 504 36.32"/>
        <polygon id="polygon205" class="st24" points="504 180.32 576 108.32 504 108.32 504 180.32"/>
        <polygon id="polygon206" class="st7" points="432 108.32 504 36.32 504 108.32 432 108.32"/>
        <polygon id="polygon207" class="st23" points="504 180.32 576 108.32 576 180.32 504 180.32"/>
        <polygon id="polygon208" class="st13" points="504 180.32 504 252.32 576 252.32 504 180.32"/>
        <g id="Black_Inner_Fills1">
          <polygon id="polygon209" class="st17" points="432 252.32 504 180.32 504 252.32 432 252.32"/>
          <polygon id="polygon210" class="st17" points="216 252.32 216 324.32 288 252.32 216 252.32"/>
          <polygon id="polygon211" class="st17" points="216 180.32 288 252.32 216 252.32 216 180.32"/>
          <polygon id="polygon212" class="st17" points="504 324.32 504 252.32 432 252.32 504 324.32"/>
        </g>
      </g>
      <g id="M_Inner_Fills__x28_Original_Colors_x29_" class="st38">
        <polygon id="polygon213" class="st0" points="504 108.32 432 108.32 504 180.32 504 108.32"/>
        <polygon id="polygon214" class="st37" points="504 252.32 504 324.32 576 252.32 504 252.32"/>
        <polygon id="polygon215" class="st27" points="576 180.32 504 180.32 576 252.32 576 180.32"/>
        <polygon id="polygon216" class="st30" points="144 180.32 144 108.32 216 180.32 144 180.32"/>
        <polygon id="polygon217" class="st30" points="144 180.32 144 252.32 216 180.32 144 180.32"/>
        <polygon id="polygon218" class="st28" points="216 252.32 144 252.32 216 180.32 216 252.32"/>
        <polygon id="polygon219" class="st33" points="216 252.32 144 252.32 216 324.32 216 252.32"/>
        <polygon id="_x3C_Path_x3E_1" class="st34" points="504 108.32 504 36.32 576 108.32 504 108.32"/>
        <polygon id="polygon220" class="st36" points="504 108.32 504 180.32 576 108.32 504 108.32"/>
        <polygon id="polygon221" class="st35" points="504 108.32 432 108.32 504 36.32 504 108.32"/>
        <polygon id="polygon222" class="st31" points="576 180.32 504 180.32 576 108.32 576 180.32"/>
        <polygon id="polygon223" class="st26" points="576 252.32 504 180.32 504 252.32 576 252.32"/>
        <g id="Black_Inner_Fills2" class="st38">
          <polygon id="polygon224" class="st17" points="504 252.32 432 252.32 504 180.32 504 252.32"/>
          <polygon id="polygon225" class="st17" points="288 252.32 216 252.32 216 324.32 288 252.32"/>
          <polygon id="polygon226" class="st17" points="216 252.32 216 180.32 288 252.32 216 252.32"/>
          <polygon id="polygon227" class="st17" points="432 252.32 504 324.32 504 252.32 432 252.32"/>
        </g>
      </g>
      <g id="M_Inner_Outlines">
        <polygon id="polygon228" class="st8" points="432 108.32 504 180.32 504 108.32 432 108.32"/>
        <polygon id="polygon229" class="st8" points="504 324.32 576 252.32 504 252.32 504 324.32"/>
        <polygon id="polygon230" class="st8" points="504 180.32 576 252.32 576 180.32 504 180.32"/>
        <polygon id="polygon231" class="st8" points="144 108.32 216 180.32 144 180.32 144 108.32"/>
        <polygon id="polygon232" class="st8" points="144 252.32 216 180.32 144 180.32 144 252.32"/>
        <polygon id="polygon233" class="st8" points="144 252.32 216 180.32 216 252.32 144 252.32"/>
        <polygon id="polygon234" class="st8" points="144 252.32 216 324.32 216 252.32 144 252.32"/>
        <polygon id="_x3C_Path_x3E_2" class="st8" points="504 36.32 576 108.32 504 108.32 504 36.32"/>
        <polygon id="polygon235" class="st8" points="504 180.32 576 108.32 504 108.32 504 180.32"/>
        <polygon id="polygon236" class="st8" points="432 108.32 504 36.32 504 108.32 432 108.32"/>
        <polygon id="polygon237" class="st8" points="504 180.32 576 108.32 576 180.32 504 180.32"/>
        <polygon id="polygon238" class="st8" points="504 180.32 504 252.32 576 252.32 504 180.32"/>
      </g>
      <g id="L_Inner_Triangles" class="st38">
        <polygon id="L_Triangle_16" class="st3" points="504 180.32 432 180.32 432 108.32 504 180.32"/>
        <polygon id="L_Triangle_15" class="st21" points="360 180.32 432 108.32 432 180.32 360 180.32"/>
        <polygon id="L_Triangle_14" class="st14" points="432 252.32 504 180.32 432 180.32 432 252.32"/>
        <polygon id="L_Triangle_13" class="st3" points="432 252.32 432 180.32 360 180.32 432 252.32"/>
        <polygon id="L_Triangle_12" class="st3" points="432 252.32 360 252.32 360 180.32 432 252.32"/>
        <polygon id="L_Triangle_11" class="st14" points="360 324.32 432 252.32 360 252.32 360 324.32"/>
        <polygon id="L_Triangle_10" class="st3" points="360 324.32 360 252.32 288 252.32 360 324.32"/>
        <polygon id="L_Triangle_9" class="st21" points="288 252.32 360 180.32 360 252.32 288 252.32"/>
        <polygon id="L_Triangle_8" class="st14" points="288 252.32 360 180.32 288 180.32 288 252.32"/>
        <polygon id="L_Triangle_7" class="st3" points="288 252.32 288 180.32 216 180.32 288 252.32"/>
        <polygon id="L_Triangle_6" class="st3" points="360 180.32 288 180.32 288 108.32 360 180.32"/>
        <polygon id="L_Triangle_5" class="st21" points="216 180.32 288 108.32 288 180.32 216 180.32"/>
        <polygon id="L_Triangle_4" class="st14" points="216 180.32 288 108.32 216 108.32 216 180.32"/>
        <polygon id="L_Triangle_3" class="st3" points="216 180.32 216 108.32 144 108.32 216 180.32"/>
        <polygon id="L_Triangle_2" class="st3" points="288 108.32 216 108.32 216 36.32 288 108.32"/>
        <polygon id="L_Triangle_1" class="st3" points="144 108.32 216 36.32 216 108.32 144 108.32"/>
      </g>
      <polyline id="L2" class="st8" points="432 108.32 504 180.32 468 216.32 432 252.32"/>
      <polyline id="L1" class="st8" points="288 252.32 216 180.32 144 108.32"/>
      <polygon id="M_Outline1" class="st11" points="576 108.32 576 180.32 576 252.32 504 324.32 432 252.32 360 324.32 288 252.32 216 324.32 144 252.32 144 180.32 144 180.48 144 108.48 144 108.32 216 36.32 288 108.32 360 180.32 432 108.32 504 36.32 576 108.32"/>
      <g id="Left_Triangle__x28_Unneeded_x29_3" class="st38">
        <line id="line238" class="st15" x1="72" y1="180.48" x2="144" y2="108.48"/>
        <line id="line239" class="st19" x1="72" y1="180.48" x2="144" y2="252.48"/>
        <line id="line240" class="st18" x1="72" y1="180.48" x2="144" y2="180.48"/>
      </g>
      <g id="Right_Triangle__x28_Unneeded_x29_3" class="st38">
        <line id="line241" class="st16" x1="576" y1="108.32" x2="648" y2="180.32"/>
        <line id="line242" class="st4" x1="576" y1="252.32" x2="648" y2="180.32"/>
        <line id="line243" class="st6" x1="576" y1="180.32" x2="648" y2="180.32"/>
      </g>
    </g>
    <g id="Text_as_Paths" class="st32">
      <g class="st32">
        <path class="st29" d="M184.78,346.25v37.15h-7.6v-21.37c0-.49,0-1.03.04-1.61s.07-1.16.14-1.76l-9.87,19.1c-.31.6-.72,1.05-1.24,1.35-.52.31-1.11.46-1.77.46h-1.17c-.66,0-1.25-.15-1.77-.46s-.93-.76-1.24-1.35l-9.87-19.15c.05.61.09,1.21.13,1.8.03.59.05,1.13.05,1.62v21.37h-7.6v-37.15h6.58c.37,0,.7,0,.98.03s.53.07.75.15.42.22.6.39c.18.18.35.43.52.75l9.56,18.84c.34.65.67,1.32.98,2.01.31.7.62,1.41.91,2.14.29-.75.59-1.48.91-2.19.31-.71.65-1.39,1.01-2.04l9.54-18.77c.17-.32.34-.57.52-.75.18-.18.38-.31.6-.39.22-.08.47-.14.75-.15.28-.02.61-.03.98-.03h6.58Z"/>
        <path class="st29" d="M225.3,383.4h-6.68c-.75,0-1.35-.17-1.81-.52s-.81-.79-1.05-1.34l-2.19-6.48h-14.13l-2.19,6.48c-.19.48-.52.91-1.01,1.29-.48.38-1.08.57-1.8.57h-6.73l14.38-37.15h8.82l14.38,37.15h0ZM211.6,369.2l-3.44-10.17c-.25-.65-.53-1.41-.82-2.28-.29-.88-.58-1.82-.87-2.84-.25,1.04-.53,2-.82,2.88-.29.88-.56,1.65-.82,2.29l-3.42,10.12h10.19Z"/>
        <path class="st29" d="M236.85,361.29h1.38c1.28,0,2.19-.4,2.75-1.2l8.36-12.14c.49-.65,1.02-1.09,1.59-1.34.57-.25,1.28-.37,2.13-.37h7.5l-11.02,15.02c-.78,1.04-1.62,1.79-2.52,2.24.65.24,1.23.57,1.76.99s1.02.98,1.48,1.66l11.22,17.24h-7.7c-.49,0-.91-.03-1.26-.1-.35-.07-.65-.17-.91-.31-.25-.14-.48-.3-.66-.5s-.37-.42-.54-.68l-8.41-12.93c-.31-.48-.69-.81-1.16-1.01s-1.1-.29-1.9-.29h-2.09v15.81h-8.62v-37.15h8.62v15.06Z"/>
        <path class="st29" d="M272.93,352.88v8.67h11.68v6.38h-11.68v8.85h15.25v6.63h-23.92v-37.15h23.92v6.63h-15.25Z"/>
      </g>
      <g class="st32">
        <path class="st29" d="M324.82,383.4h-4.18c-.48,0-.87-.12-1.17-.36-.31-.24-.53-.54-.66-.92l-3.24-8.49h-16.14l-3.24,8.49c-.12.32-.34.62-.66.88s-.71.4-1.17.4h-4.18l14.59-36.62h5.48l14.59,36.62h-.02ZM314.09,369.76l-5.43-14.2c-.39-.97-.78-2.19-1.17-3.67-.19.73-.38,1.41-.57,2.04-.2.63-.39,1.19-.57,1.68l-5.41,14.15h13.16,0Z"/>
        <path class="st29" d="M341.32,346.78c2.3,0,4.26.22,5.9.66,1.64.44,2.99,1.08,4.04,1.91,1.05.83,1.83,1.84,2.33,3.02s.75,2.52.75,4.02c0,.88-.14,1.73-.41,2.55-.27.82-.69,1.58-1.25,2.28-.56.71-1.27,1.34-2.12,1.9s-1.85,1.03-3.01,1.4c5.32,1.05,7.98,3.83,7.98,8.34,0,1.56-.29,2.99-.87,4.27s-1.42,2.39-2.52,3.33c-1.11.94-2.47,1.66-4.08,2.17-1.62.51-3.45.76-5.51.76h-13.18v-36.62h11.95ZM334.82,351.04v11.99h6.25c2.67,0,4.65-.54,5.95-1.62,1.3-1.08,1.95-2.54,1.95-4.37,0-2.09-.62-3.61-1.86-4.56s-3.17-1.43-5.79-1.43h-6.5ZM342.47,379.09c1.38,0,2.55-.16,3.53-.48s1.78-.76,2.4-1.33c.62-.56,1.07-1.23,1.36-2,.29-.77.43-1.62.43-2.54,0-1.82-.63-3.25-1.89-4.3-1.26-1.04-3.2-1.57-5.84-1.57h-7.65v12.21h7.66Z"/>
        <path class="st29" d="M367.97,383.4h-5.46v-36.62h5.46v36.62Z"/>
        <path class="st29" d="M397.96,378.84v4.56h-20.96v-36.62h5.43v32.05h15.53Z"/>
        <path class="st29" d="M408.72,383.4h-5.46v-36.62h5.46v36.62Z"/>
        <path class="st29" d="M442.71,351.32h-11.63v32.08h-5.41v-32.08h-11.68v-4.54h28.71v4.54h.01Z"/>
      </g>
      <g class="st32">
        <path class="st29" d="M462.24,368.92v14.48h-5.41v-14.48l-13.41-22.13h4.77c.48,0,.86.12,1.15.34.29.23.53.53.71.91l7.96,13.69c.32.63.62,1.22.88,1.79.26.56.5,1.11.7,1.66.19-.54.4-1.1.65-1.66s.53-1.16.85-1.79l7.93-13.69c.17-.31.4-.59.7-.85.3-.26.68-.4,1.13-.4h4.79l-13.41,22.13h.01Z"/>
      </g>
      <g class="st32">
        <path class="st29" d="M511.92,378.84v4.56h-20.96v-36.62h5.43v32.05h15.53Z"/>
        <path class="st29" d="M547.41,383.4h-4.18c-.48,0-.87-.12-1.17-.36-.31-.24-.53-.54-.66-.92l-3.24-8.49h-16.14l-3.24,8.49c-.12.32-.34.62-.66.88-.32.26-.71.4-1.17.4h-4.18l14.59-36.62h5.48l14.59,36.62h-.02ZM536.67,369.76l-5.43-14.2c-.39-.97-.78-2.19-1.17-3.67-.19.73-.38,1.41-.57,2.04-.2.63-.39,1.19-.57,1.68l-5.41,14.15h13.16-.01Z"/>
        <path class="st29" d="M563.91,346.78c2.29,0,4.26.22,5.9.66s2.99,1.08,4.04,1.91c1.05.83,1.83,1.84,2.33,3.02s.75,2.52.75,4.02c0,.88-.14,1.73-.41,2.55-.27.82-.69,1.58-1.25,2.28-.56.71-1.27,1.34-2.12,1.9s-1.85,1.03-3.01,1.4c5.32,1.05,7.98,3.83,7.98,8.34,0,1.56-.29,2.99-.87,4.27s-1.42,2.39-2.52,3.33c-1.11.94-2.47,1.66-4.08,2.17-1.62.51-3.45.76-5.51.76h-13.18v-36.62h11.95ZM557.41,351.04v11.99h6.25c2.67,0,4.65-.54,5.95-1.62s1.95-2.54,1.95-4.37c0-2.09-.62-3.61-1.86-4.56s-3.17-1.43-5.79-1.43h-6.5ZM565.06,379.09c1.38,0,2.55-.16,3.53-.48.98-.32,1.78-.76,2.4-1.33.62-.56,1.08-1.23,1.36-2,.29-.77.43-1.62.43-2.54,0-1.82-.63-3.25-1.89-4.3-1.26-1.04-3.21-1.57-5.84-1.57h-7.65v12.21h7.66Z"/>
      </g>
    </g>
  </g>
</svg>